<svg id="Layer_1" data-name="Layer 1" xmlns="http://www.w3.org/2000/svg" viewBox="0 0 191.66 78.38"><title>Flynas logo - Brandlogos.net</title><g id="_Group_" data-name="&lt;Group&gt;"><path id="_Compound_Path_" data-name="&lt;Compound Path&gt;" d="M457.7,379.31v.11c0,7-5.16,11.35-13.47,11.35a23.92,23.92,0,0,1-13.84-4.42,3.65,3.65,0,0,1-1.47-3,3.61,3.61,0,0,1,3.68-3.63,3.78,3.78,0,0,1,2.25.71,15.74,15.74,0,0,0,9.55,3.36c3.43,0,5.48-1.35,5.48-3.62v-.11c0-2.27-1.62-3.32-7.56-4.83-6.9-1.76-12.18-3.7-12.18-11.2V364c0-6.5,5.28-11,12.84-11a21.43,21.43,0,0,1,11.68,3.26,3.64,3.64,0,0,1-1.95,6.74,3.75,3.75,0,0,1-2-.57,15.59,15.59,0,0,0-7.85-2.5c-3,0-4.89,1.32-4.89,3.36v.11c0,2.56,1.72,3.37,8.09,5,7,1.82,11.65,4.39,11.65,11M367.78,353c-9.87,0-17.32,8.18-17.32,18.93v14.78a3.94,3.94,0,1,0,7.88,0V372c0-6.49,3.9-11,9.44-11.06s9.46,4.57,9.46,11.06v14.78a3.94,3.94,0,1,0,7.88,0V372c0-10.76-7.44-18.9-17.34-18.93m-20.12.18a3.94,3.94,0,0,0-5.28,1.79l-10.3,20.87L321.76,355a3.94,3.94,0,0,0-7.07,3.49l13,26.27-5.52,11.18a3.94,3.94,0,1,0,7.06,3.49l20.21-40.95a3.94,3.94,0,0,0-1.79-5.28m-59.28,8.55a3.93,3.93,0,1,0,3.93,3.94,3.93,3.93,0,0,0-3.93-3.94m5.94-17.82-1,0c-.55,0-1.18-.07-1.85-.07-10.38,0-16.76,6.46-17.29,17.36a4.54,4.54,0,0,0,0,.53v24.89a3.94,3.94,0,1,0,7.88,0V362.66c0-9.84,5.39-11,9.44-11,.44,0,.89,0,1.38.06l1.21.06a3.94,3.94,0,1,0,.23-7.88m11.63.1A3.94,3.94,0,0,0,302,348v38.63a3.94,3.94,0,1,0,7.88,0V348a3.94,3.94,0,0,0-3.94-3.94m101.11,9c-10.26,0-18,8-18.2,18.55,0,.05,0,.11,0,.16V372c0,.06,0,.11,0,.16.18,10.6,7.95,18.55,18.21,18.55a21.79,21.79,0,0,0,3.63-.26,3.94,3.94,0,1,0-1.45-7.74,16.57,16.57,0,0,1-2.18.12c-6.05,0-10.29-4.49-10.34-10.95s4.29-10.92,10.33-10.95,10.36,4.57,10.36,11.06v14.78a3.94,3.94,0,1,0,7.88,0V372c0-10.76-7.83-18.9-18.23-18.93m55.25,7.61a3.51,3.51,0,0,0,3.52-3.51h0a3.48,3.48,0,0,0-3.5-3.49,3.52,3.52,0,0,0-3.52,3.51v0a3.48,3.48,0,0,0,3.5,3.49m0-.54a2.91,2.91,0,0,1-2.94-2.95v0a2.95,2.95,0,1,1,5.9,0h0a2.93,2.93,0,0,1-3,3m-1.43-1.55a.41.41,0,0,0,.41.41.42.42,0,0,0,.42-.41v-.85h.67l.87,1.07a.37.37,0,0,0,.35.19.4.4,0,0,0,.38-.4.42.42,0,0,0-.11-.28l-.61-.74a1.15,1.15,0,0,0,.75-1.14h0a1.11,1.11,0,0,0-.31-.81,1.57,1.57,0,0,0-1.15-.41h-1.25a.41.41,0,0,0-.41.41Zm.82-1.56v-1.1h.81c.4,0,.66.19.66.54v0c0,.31-.22.53-.64.53Z" transform="translate(-274.17 -343.81)" style="fill:#00b0aa"/><path id="_Path_" data-name="&lt;Path&gt;" d="M417.69,407a1.25,1.25,0,0,0-2.5,0v11.24h-4.81c-1.18,0-4.76,0-4.76-5.46V407a1.25,1.25,0,0,0-2.5,0v5.78c0,5.06,2.65,8,7.26,8h6.08a1.24,1.24,0,0,0,1.23-1.26v-.08s0-.09,0-.15Z" transform="translate(-274.17 -343.81)" style="fill:#00b0aa"/><path id="_Path_2" data-name="&lt;Path&gt;" d="M422.28,415.45V401.2a1.25,1.25,0,0,0-2.5,0v14.25a1.25,1.25,0,1,0,2.5,0" transform="translate(-274.17 -343.81)" style="fill:#00b0aa"/><path id="_Path_3" data-name="&lt;Path&gt;" d="M410.86,402.32a1.29,1.29,0,0,0,.89-.36,1.25,1.25,0,0,0-1.78-1.77,1.28,1.28,0,0,0-.36.89,1.23,1.23,0,0,0,1.25,1.24" transform="translate(-274.17 -343.81)" style="fill:#00b0aa"/><path id="_Path_4" data-name="&lt;Path&gt;" d="M396.22,405.73A1.26,1.26,0,0,0,395,407v7.19h-4.48c-1.18,0-4.77,0-4.77-5.46v-7.55a1.25,1.25,0,1,0-2.5,0v7.55c0,5.06,2.65,8,7.27,8h5.74a1.25,1.25,0,0,0,1.25-1.25V407a1.25,1.25,0,0,0-1.25-1.25" transform="translate(-274.17 -343.81)" style="fill:#00b0aa"/><path id="_Path_5" data-name="&lt;Path&gt;" d="M396.15,402.32a1.25,1.25,0,1,0-1.25-1.25,1.25,1.25,0,0,0,1.25,1.25" transform="translate(-274.17 -343.81)" style="fill:#00b0aa"/><path id="_Path_6" data-name="&lt;Path&gt;" d="M379.38,405.72a1.25,1.25,0,0,0-1.25,1.25v4.22c0,.12,0,3-2.26,3h-3.81l.15-.34a6.8,6.8,0,0,0,.55-2.64V407a1.25,1.25,0,0,0-2.5,0v4.22c0,.12,0,3-2.26,3H365v-7.23a1.25,1.25,0,0,0-2.5,0v11.24h-4.7c-1.18,0-4.77,0-4.77-5.46v-5.79a1.25,1.25,0,0,0-2.5,0v5.79c0,5.06,2.65,8,7.27,8h5.95a1.25,1.25,0,0,0,1.25-1.25v-2.76h11.25c3.24-.22,4.41-3.4,4.41-5.48V407a1.25,1.25,0,0,0-1.25-1.25" transform="translate(-274.17 -343.81)" style="fill:#00b0aa"/><path id="_Path_7" data-name="&lt;Path&gt;" d="M433.66,418.8a1.26,1.26,0,0,0-1.26,1.25,1.27,1.27,0,0,0,.38.88,1.25,1.25,0,0,0,.88.37,1.28,1.28,0,0,0,.88-.37,1.25,1.25,0,0,0-.88-2.14" transform="translate(-274.17 -343.81)" style="fill:#00b0aa"/><path id="_Path_8" data-name="&lt;Path&gt;" d="M430,418.8a1.29,1.29,0,0,0-.88.37,1.25,1.25,0,0,0-.36.88,1.25,1.25,0,0,0,2.14.88,1.25,1.25,0,0,0-.89-2.14" transform="translate(-274.17 -343.81)" style="fill:#00b0aa"/><path id="_Path_9" data-name="&lt;Path&gt;" d="M449.91,403.59a10.58,10.58,0,0,0-7.37,2.41l-.1.09-.53.47-.41.38v-5.74a1.25,1.25,0,0,0-2.5,0V411.3s0,.06,0,.08a.28.28,0,0,1,0,.08,1.29,1.29,0,0,0,.38.9,1.26,1.26,0,0,0,.88.36,1.3,1.3,0,0,0,.89-.36,1.34,1.34,0,0,0,.3-.53l.08-.27h0a4.22,4.22,0,0,1,.4-1,9.8,9.8,0,0,1,1-1.5,9.26,9.26,0,0,1,1.14-1.11l.1-.09a8,8,0,0,1,5.62-1.79c3.64.13,4.37,1.61,4.37,4v4.13H433.51l.15-.34a6.81,6.81,0,0,0,.55-2.65v-4.28a1.25,1.25,0,0,0-2.5,0v4.28c0,.12,0,3-2.26,3h-2.55v-7.27a1.25,1.25,0,0,0-2.49,0v8.64a4.88,4.88,0,0,1-2.83,4.2,1.25,1.25,0,0,0-.73,1.61,1.27,1.27,0,0,0,1.62.72,7.36,7.36,0,0,0,4.3-5.21l0-.19h28.65a1.26,1.26,0,0,0,1.25-1.26v-5.37c0-4.14-2.29-6.32-6.82-6.49" transform="translate(-274.17 -343.81)" style="fill:#00b0aa"/></g></svg>