<svg id="Layer_1" data-name="Layer 1" xmlns="http://www.w3.org/2000/svg" viewBox="0 0 691.32 189.73"><title>Vistara logo - Brandlogos.net</title><path d="M258.64,421.39h-11.5v9.06H257V433H246.94a7.25,7.25,0,0,1,.21,1.5v10.95h-2.87V418.8h15.08Z" transform="translate(-38.34 -289.13)" style="fill:#511d4b"/><path d="M268,445.8c-2.92,0-4.44-1.54-4.44-4.8V416.65h2.9V441c0,1.66.5,2.2,1.61,2.2h1.4v2.6Z" transform="translate(-38.34 -289.13)" style="fill:#511d4b"/><path d="M279.36,450.71c-1,2.76-2.61,3.72-6,3.72h-2.53v-2.59h2.53c2.28,0,2.79-.49,3.45-2.34l1.29-3.5-7.64-20.38h3l5.45,14.6c.22.56.44,1.62.66,2.51.24-.91.5-1.95.72-2.51l5.43-14.6h3Z" transform="translate(-38.34 -289.13)" style="fill:#511d4b"/><path d="M308.22,446.06c-2.9,0-5.18-1.07-5.18-5.44v-11a3.62,3.62,0,0,1,.32-1.48h-3.73v-2.54H303v-6.73l2.89-.85v7.59H313l-.83,2.54h-6.28v12.46c0,2.35,1,3.08,3.21,3.08a5.89,5.89,0,0,0,3.19-1.09l1.79,1.83c-1.54,1.25-4,1.62-5.91,1.62" transform="translate(-38.34 -289.13)" style="fill:#511d4b"/><path d="M330.7,445.48V432.73c0-4.26-1.81-5.3-4.21-5.3-1.62,0-2.74.52-4.58,1.74L320,430.45v15h-2.89V416.65h2.85V427l-.28,1.32,1.79-1.27a9.17,9.17,0,0,1,5.05-2c4.05,0,7.06,2.11,7.06,7.61v12.84Z" transform="translate(-38.34 -289.13)" style="fill:#511d4b"/><path d="M346.93,427.43c-3.85,0-5.88,1.6-6.17,6.51h11.6c0-4-1-6.51-5.44-6.51m-6.17,8.94c.15,4.94,1.49,7.28,6.15,7.28,2.89,0,4.62-.95,5.55-2.87l2.5,1c-1.29,2.72-3.59,4.28-8.05,4.28-6.35,0-9.18-3.18-9.18-10.52,0-6.65,2.26-10.51,9.2-10.51,7.46,0,8.41,4.88,8.41,10.51v.83Z" transform="translate(-38.34 -289.13)" style="fill:#511d4b"/><path d="M382.4,445.48V432.73c0-4.26-1.82-5.3-4.18-5.3-1.66,0-2.75.52-4.61,1.74l-2,1.28v15h-2.88V425.62h2.31l.63,2.39,1.46-1a9.06,9.06,0,0,1,5.08-2c4,0,7,2.11,7,7.61v12.84Z" transform="translate(-38.34 -289.13)" style="fill:#511d4b"/><path d="M398.61,427.43c-3.86,0-5.89,1.6-6.19,6.51H404c0-4-1-6.51-5.42-6.51m-6.19,8.94c.13,4.94,1.51,7.28,6.15,7.28,2.9,0,4.61-.95,5.61-2.87l2.48,1c-1.31,2.72-3.61,4.28-8.09,4.28-6.34,0-9.22-3.18-9.22-10.52,0-6.65,2.28-10.51,9.26-10.51,7.41,0,8.38,4.88,8.38,10.51v.83Z" transform="translate(-38.34 -289.13)" style="fill:#511d4b"/><path d="M430.27,445.48h-2.84l-4.09-13.29a30.81,30.81,0,0,1-.73-3.66,23.71,23.71,0,0,1-.62,3.66l-4.11,13.29H415l-6.14-19.87h2.78l4.1,13.56c.32,1,.7,3.63.7,3.63a27.23,27.23,0,0,1,.71-3.63l4.1-13.56H424l4.14,13.56a34.21,34.21,0,0,1,.6,3.71s.42-2.54.76-3.71l4.12-13.56h2.8Z" transform="translate(-38.34 -289.13)" style="fill:#511d4b"/><path d="M461.45,419.7c-.79-.14-1.31-.24-1.85-.35a12.17,12.17,0,0,0-2.06-.18c-2.14,0-4,1.09-4,4.27v2.18h6.85l-.64,2.51h-6.21v17.36h-2.86V429.75a4.3,4.3,0,0,1,.33-1.63h-3.4v-2.51h3.06v-2.18c0-4.55,2.91-6.78,6.9-6.78a24.81,24.81,0,0,1,4.44.51Z" transform="translate(-38.34 -289.13)" style="fill:#511d4b"/><path d="M471.26,427.43c-3.9,0-5.91,1.6-6.21,6.51h11.58c0-4-.94-6.51-5.37-6.51m-6.21,8.94c.16,4.94,1.51,7.28,6.16,7.28,2.87,0,4.62-.95,5.56-2.87l2.5,1c-1.31,2.72-3.59,4.28-8.07,4.28-6.34,0-9.22-3.18-9.22-10.52,0-6.65,2.31-10.51,9.27-10.51,7.43,0,8.36,4.88,8.36,10.51v.83Z" transform="translate(-38.34 -289.13)" style="fill:#511d4b"/><path d="M492.44,427.43c-3.88,0-5.92,1.6-6.21,6.51h11.58c0-4-1-6.51-5.36-6.51m-6.21,8.94c.16,4.94,1.51,7.28,6.15,7.28,2.88,0,4.61-.95,5.58-2.87l2.48,1c-1.32,2.72-3.61,4.28-8.06,4.28-6.32,0-9.21-3.18-9.21-10.52,0-6.65,2.26-10.51,9.26-10.51,7.4,0,8.36,4.88,8.36,10.51v.83Z" transform="translate(-38.34 -289.13)" style="fill:#511d4b"/><path d="M509.53,445.8c-2.93,0-4.4-1.54-4.4-4.8V416.65H508V441c0,1.66.53,2.2,1.64,2.2H511v2.6Z" transform="translate(-38.34 -289.13)" style="fill:#511d4b"/><path d="M514.31,425.62h2.89v19.87h-2.89Zm3-5.4h-3l-.24-.29V417l.24-.37h3l.25.37v2.89Z" transform="translate(-38.34 -289.13)" style="fill:#511d4b"/><path d="M535.9,445.48V432.73c0-4.26-1.76-5.3-4.16-5.3-1.68,0-2.78.52-4.61,1.74l-2,1.28v15H522.3V425.62h2.29l.63,2.39,1.44-1a9.12,9.12,0,0,1,5.08-2c4,0,7.05,2.11,7.05,7.61v12.84Z" transform="translate(-38.34 -289.13)" style="fill:#511d4b"/><path d="M551.73,427.4c-3.16,0-5.15,1.25-5.15,4.61,0,3.53,2.28,4.47,5.15,4.47,3.26,0,5.18-.9,5.18-4.47,0-3-1.77-4.61-5.18-4.61M555.53,445l-8.44-1.55a4.84,4.84,0,0,0-2,4.23c0,3.33,2.23,4.4,6.57,4.4,4.87,0,6.53-1.53,6.53-3.94a2.8,2.8,0,0,0-2.69-3.14m6-17.19h-1.42a6.75,6.75,0,0,1-1.84-.25,6.94,6.94,0,0,1,1.6,4.4c0,4.62-2.64,6.8-8.1,6.8a16.35,16.35,0,0,1-2.27-.19l-1.4-.25a1.44,1.44,0,0,0-1.66,1.54c0,.79.44,1.19,1.39,1.39l8.19,1.42c4.31.77,5.19,3,5.19,5.45,0,4.76-4.17,6.19-9.47,6.19-4.37,0-9.53-.73-9.53-6.65a6.32,6.32,0,0,1,2.81-5.26,3.11,3.11,0,0,1,.8-5.38,6.4,6.4,0,0,1-2.16-5.08c0-5,3.74-7,8.1-7a10,10,0,0,1,5.23,1.18L560,425h2Z" transform="translate(-38.34 -289.13)" style="fill:#511d4b"/><path d="M245.57,328.53h11.92a2.1,2.1,0,0,1,2.07,1.29c6.36,11.68,27.71,49.92,27.71,49.92s21.75-38.24,28.21-50a2,2,0,0,1,2-1.19h6a1.24,1.24,0,0,1,1.05,1.83l-32.22,56.27a2.29,2.29,0,0,1-2.18,1.44H278.92a2.69,2.69,0,0,1-2.32-1.62c-4.4-7.64-24.67-43.06-32.05-56-.28-.48-.75-2,1-2" transform="translate(-38.34 -289.13)" style="fill:#511d4b"/><path d="M424.58,338.74a55.29,55.29,0,0,0-27-6.67c-15.6,0-18.66,6.71-18.66,11.44,0,5.92,6.15,7.6,13.26,8.1,4.39.32,15.35.83,21.29,1.92,14.2,2.6,18,10.55,18,16.95,0,13.41-15.61,19.13-34.58,19.13A68.29,68.29,0,0,1,364.73,382a1.66,1.66,0,0,1-.45-2.3c1.15-2.12.78-1.4,1.76-3.22a1.39,1.39,0,0,1,2.14-.61c3.76,2.35,15.81,8.21,28.67,8.21,13.25,0,20.53-5.79,20.53-11.6,0-4.89-1.88-7.88-11.9-9.26-5.31-.72-17.22-.78-23.22-2.16s-16.55-4.28-16.55-16c0-6.51,5.17-18.5,32.47-18.5,14.92,0,24.84,4,29.75,6.58a1.34,1.34,0,0,1,.59,2c-.8,1.33-1.14,1.89-1.93,3.3a1.44,1.44,0,0,1-2,.33" transform="translate(-38.34 -289.13)" style="fill:#511d4b"/><path d="M348,328.53H338.3a1.85,1.85,0,0,0-1.85,1.85v55.69a1.94,1.94,0,0,0,1.85,2H348a1.94,1.94,0,0,0,1.85-2V330.38a1.85,1.85,0,0,0-1.85-1.85" transform="translate(-38.34 -289.13)" style="fill:#511d4b"/><path d="M489,384.9c-.89-2.39-.53-1.51-1.27-3.67a1.35,1.35,0,0,0-2-.83,38.31,38.31,0,0,1-12.95,2.9c-9.57,0-15.2-4.17-15.2-12.72V335.94h26.95a1.91,1.91,0,0,0,2-1.83v-2.75a1.91,1.91,0,0,0-2-1.81H457.61V315.13a1.5,1.5,0,0,0-2-1.5c-2.35.77-6.71,2.19-9.08,2.94a2.39,2.39,0,0,0-1.64,2.37V367.5c0,12.07,7.06,22,26.08,22a59.21,59.21,0,0,0,16.9-2.68A1.42,1.42,0,0,0,489,384.9" transform="translate(-38.34 -289.13)" style="fill:#511d4b"/><path d="M595.06,362V334.43h27.51c8.77,0,12.55,7.07,12.55,13.16,0,6.84-3.35,14.45-14.53,14.45Zm54.4,23.29c-6.8-5.19-22-16.68-23.9-18.1,10.73,0,23.56-6.13,23.56-19.73,0-15-14.53-19-21.3-19l-43.94,0a1.94,1.94,0,0,0-1.84,2V386a1.94,1.94,0,0,0,1.84,2h9.31a1.93,1.93,0,0,0,1.85-2V367.83h14.45s16.44,13.34,22.22,18.06c.46.42,2.52,2.2,4.7,2.2h12.82c.87,0,1.79-1.57.24-2.76" transform="translate(-38.34 -289.13)" style="fill:#511d4b"/><path d="M526.82,383.63c-13.07,0-16.52-6.64-16.52-13.08,0-10.82,13-12.89,21.05-12.89a96.33,96.33,0,0,1,22.2,2.86v14.8a44.58,44.58,0,0,1-26.73,8.31M566.53,353v-.52c0-3.74-.88-12.29-8.18-18.32-2.56-2.11-10.25-6.93-25.25-6.93-12.52,0-21.92,3.17-31.15,8a1.46,1.46,0,0,0-.7,2c1.06,2.41.85,2.19,1.51,3.61.37.84,1.1,1,2,.49,4.58-2.62,15-8.11,26.71-8.11,14.3,0,22,6.51,22,15.5v6.87a97.6,97.6,0,0,0-24-3.45c-24.39,0-32.89,8.9-32.89,19,0,14.82,14.7,18.48,27.67,18.48,11.07,0,21.16-2.52,29.07-8.45h.23c0,2.82,0,5,0,5a2,2,0,0,0,1.9,2h9.2a1.91,1.91,0,0,0,1.81-2Z" transform="translate(-38.34 -289.13)" style="fill:#511d4b"/><path d="M689.92,383.63c-13.06,0-16.49-6.64-16.49-13.08,0-10.82,13-12.89,21-12.89a96.51,96.51,0,0,1,22.22,2.86v14.8a44.77,44.77,0,0,1-26.74,8.31M729.66,353v-.52c0-3.74-.9-12.29-8.2-18.32-2.58-2.11-10.26-6.93-25.29-6.93-12.47,0-21.9,3.17-31.15,8a1.49,1.49,0,0,0-.68,2c1.06,2.41.88,2.19,1.53,3.61.38.84,1.12,1,2,.49,4.55-2.62,15-8.11,26.69-8.11,14.28,0,22.07,6.51,22.07,15.5v6.87a98.12,98.12,0,0,0-24-3.45c-24.38,0-32.9,8.9-32.9,19,0,14.82,14.68,18.48,27.68,18.48,11.07,0,21.13-2.52,29.06-8.45h.22v5a2,2,0,0,0,1.89,2h9.21a1.93,1.93,0,0,0,1.83-2Z" transform="translate(-38.34 -289.13)" style="fill:#511d4b"/><path d="M196.82,406.13c-.45-1.83-1-3.7-1.52-5.59,11.26-7.71,17.2-14.8,17.46-15.11l1.18-1.44-1.16-1.42c-.25-.31-6.21-7.38-17.44-15.08.59-1.9,1.1-3.77,1.56-5.59a121.15,121.15,0,0,1,25,22.09,120.53,120.53,0,0,1-25.1,22.14M196,447.29a110.29,110.29,0,0,1-18,.09,122.87,122.87,0,0,1-44.23-11.65,113.17,113.17,0,0,1-10.5-5.77c-2.42-1.53-4.76-3.1-7-4.71l-.74-.54-.91.15a82,82,0,0,1-23,.32,81.85,81.85,0,0,1,.29-23l.15-.91-.55-.73c-1.35-1.86-2.65-3.79-4-5.86.87-2,1.78-4.07,2.8-6.07a110.22,110.22,0,0,0,8,11.59,59,59,0,0,0-1.68,18.1l.15,1.81,1.82.19a59.59,59.59,0,0,0,18.05-1.72,110.65,110.65,0,0,0,15.15,10,112.84,112.84,0,0,0,10.92,5.23,109.6,109.6,0,0,0,40.88,8.36c3,0,4.85-.16,5.11-.19l1.8-.18.19-1.83c.1-.84,1.89-20.82-7.75-45,1.14-1.9,2.25-3.82,3.3-5.79a124.64,124.64,0,0,1,9.68,40.15,112.5,112.5,0,0,1-.08,18m-63.05,25.93a119.82,119.82,0,0,1-22.05-25.13c1.83-.45,3.68-1,5.56-1.57A93.05,93.05,0,0,0,131.51,464l1.42,1.18,1.44-1.18c.31-.27,7.34-6.18,15-17.47,1.91.58,3.76,1.1,5.58,1.55a119.29,119.29,0,0,1-22,25.09m-.11-33A120.22,120.22,0,0,0,145,445.15a95,95,0,0,1-12,14.17,95.21,95.21,0,0,1-12-14.23,123.44,123.44,0,0,0,11.94-4.87M85.66,399.76c.61.89,1.22,1.77,1.85,2.64a81.78,81.78,0,0,0,.1,25.16l.31,1.46,1.43.28a80.64,80.64,0,0,0,25.13.11c.91.66,1.85,1.31,2.79,1.93a104.36,104.36,0,0,1-38,6.43,104.68,104.68,0,0,1,6.38-38m2,47.62a110.45,110.45,0,0,1-18-.09,111.61,111.61,0,0,1-.09-18A124.12,124.12,0,0,1,81.17,385a108.6,108.6,0,0,1,5.89-10.75c1.49-2.39,3-4.67,4.58-6.84l.55-.73-.15-.92a81.7,81.7,0,0,1-.29-23,79.52,79.52,0,0,1,22.92.3l.94.15.72-.55c1.88-1.39,3.92-2.76,6-4.08,2.06.87,4.07,1.8,6.07,2.79a112.88,112.88,0,0,0-11.68,8.11,58.68,58.68,0,0,0-18.09-1.7l-1.79.18-.17,1.81a58.86,58.86,0,0,0,1.7,18.11,111.16,111.16,0,0,0-9.92,15A104.65,104.65,0,0,0,83.09,394C73,418.73,74.87,439.26,75,440.11l.18,1.83,1.83.18c.23,0,2,.2,5.09.2a110,110,0,0,0,39.9-8c1.86,1.14,3.8,2.24,5.75,3.28a124.11,124.11,0,0,1-40.06,9.75M43.95,384a117.77,117.77,0,0,1,24.82-22.08c.47,1.85,1,3.71,1.57,5.62a89.6,89.6,0,0,0-17.24,15L51.93,384l1.17,1.41a89.6,89.6,0,0,0,17.31,15.11c-.57,1.89-1.09,3.76-1.57,5.59A118.12,118.12,0,0,1,43.95,384M71.82,396A94.58,94.58,0,0,1,57.8,384a94.58,94.58,0,0,1,14-12A118.48,118.48,0,0,0,76.71,384a119.55,119.55,0,0,0-4.89,12m15.68-30.51c-.62.86-1.23,1.77-1.85,2.64a103.33,103.33,0,0,1-6.28-38,101.36,101.36,0,0,1,37.86,6.32c-.95.64-1.89,1.29-2.8,2a80.48,80.48,0,0,0-25.09.1l-1.43.31-.31,1.45a81.92,81.92,0,0,0-.1,25.18M69.68,320.61a120.84,120.84,0,0,1,62.19,11.47A121.43,121.43,0,0,1,142.56,338c2.39,1.5,4.7,3.1,6.86,4.69l.72.54.93-.15a82,82,0,0,1,22.85-.36,83,83,0,0,1-.36,22.94l-.14.93.54.73q2.16,2.93,4.11,6.08-1.25,3-2.67,5.88a110.47,110.47,0,0,0-8-11.59,61.6,61.6,0,0,0,1.75-18.07l-.2-1.83-1.8-.18a59.08,59.08,0,0,0-18,1.76,108.47,108.47,0,0,0-15.06-10.08A110.15,110.15,0,0,0,122.95,334c-24.64-10.17-45-8.14-45.91-8.07l-1.79.21-.19,1.79c-.09.83-2,20.73,7.64,45-1.2,2-2.33,4-3.43,6a123.07,123.07,0,0,1-9.76-40.27,105.54,105.54,0,0,1,.17-18m63.25-25.87a117.46,117.46,0,0,1,22,24.92c-1.82.49-3.69,1-5.59,1.58a89.54,89.54,0,0,0-15-17.32l-1.43-1.16-1.42,1.16c-.29.25-7.34,6.13-15.06,17.36-1.89-.59-3.75-1.09-5.58-1.57a118.14,118.14,0,0,1,22.05-25m-.11,32.89a116.24,116.24,0,0,0-11.94-4.9,91.52,91.52,0,0,1,12-14.08,92.08,92.08,0,0,1,12,14,116.63,116.63,0,0,0-12.11,5m45.23,12.73-.28-1.45-1.47-.31a81.54,81.54,0,0,0-25,0c-.86-.64-1.81-1.29-2.72-1.9a102.35,102.35,0,0,1,37.83-6.31,103.48,103.48,0,0,1-6.3,38c-.66-1-1.32-1.94-2-2.89a82.75,82.75,0,0,0-.06-25.09M102.6,398.21A106.16,106.16,0,0,1,92.92,384a107.38,107.38,0,0,1,9.58-14.15l.69-.88-.27-1.08A61.07,61.07,0,0,1,101,352.11a60.54,60.54,0,0,1,15.68,2l1.11.29.86-.72a106.47,106.47,0,0,1,14.37-9.8,106.92,106.92,0,0,1,14.24,9.72l.85.71,1.09-.25a61,61,0,0,1,15.63-2,61.2,61.2,0,0,1-2,15.67l-.28,1.08.71.87A104,104,0,0,1,172.91,384a103.87,103.87,0,0,1-9.77,14.42l-.7.88.27,1.08a61.81,61.81,0,0,1,2,15.68A61.26,61.26,0,0,1,149,414l-1.07-.29-.88.7A103.38,103.38,0,0,1,133,424.06a101.93,101.93,0,0,1-14.26-9.69l-.87-.7-1.07.29a59.58,59.58,0,0,1-15.7,1.94A59.42,59.42,0,0,1,103,400.18l.27-1.08Zm75.5,4.27c.68-.93,1.33-1.89,2-2.88a104.87,104.87,0,0,1,6.38,38.06,104.5,104.5,0,0,1-37.94-6.41c.93-.63,1.84-1.28,2.72-1.9a82.45,82.45,0,0,0,25,0l1.47-.29.28-1.49a82.83,82.83,0,0,0,.06-25m-.06-82a106.39,106.39,0,0,1,17.93.17,122.14,122.14,0,0,1-11.47,62.44,115,115,0,0,1-5.79,10.5c-1.52,2.45-3.11,4.81-4.73,7l-.58.74.14.91a83.12,83.12,0,0,1,.36,22.94,83,83,0,0,1-22.86-.37l-.92-.17-.76.57c-1.84,1.37-3.83,2.71-5.89,4-2-.85-3.93-1.76-5.87-2.71A106.44,106.44,0,0,0,149,418.63a60,60,0,0,0,18,1.75l1.83-.18.19-1.83a60.44,60.44,0,0,0-1.75-18.05A108.38,108.38,0,0,0,177.42,385a106.45,106.45,0,0,0,5.23-11c10.17-24.74,8.14-45.22,8.05-46.07l-.18-1.79-1.81-.2c-.83-.08-20.64-2-44.79,7.63-1.94-1.2-4-2.36-6-3.44a122.51,122.51,0,0,1,40.11-9.76M188.94,384a115.09,115.09,0,0,0,5-12.11A95.76,95.76,0,0,1,208,384a94.61,94.61,0,0,1-14.19,12.09,114.61,114.61,0,0,0-4.92-12m37.6-1.39c-.41-.54-10.16-13.45-28.58-25.38a125.86,125.86,0,0,0,2.64-18.47,100.78,100.78,0,0,0-.4-20.54l-.25-1.61-1.62-.25a99.94,99.94,0,0,0-20.44-.42,128.33,128.33,0,0,0-18.31,2.61c-11.91-18.44-24.77-28.08-25.34-28.49l-1.31-1-1.3,1c-.56.41-13.45,10.06-25.35,28.52A128,128,0,0,0,87.8,316a100,100,0,0,0-20.46.42l-1.61.25-.24,1.61a100.43,100.43,0,0,0-.42,20.54,128.94,128.94,0,0,0,2.61,18.48c-18.35,11.93-27.95,24.83-28.36,25.4l-1,1.31,1,1.32c.41.55,10,13.49,28.43,25.43a133,133,0,0,0-2.61,18.37,103.56,103.56,0,0,0,.33,20.52l.25,1.65,1.61.24a86.64,86.64,0,0,0,11.54.64c2.63,0,5.65-.09,8.94-.33a128.81,128.81,0,0,0,18.46-2.66c11.91,18.49,24.79,28.27,25.33,28.69l1.33,1,1.35-1c.55-.43,13.39-10.18,25.3-28.66a130.22,130.22,0,0,0,18.24,2.62c3.35.24,6.35.33,9,.33a86.71,86.71,0,0,0,11.52-.64l1.63-.24.25-1.65a102.59,102.59,0,0,0,.32-20.52,131.86,131.86,0,0,0-2.62-18.36c18.46-11.95,28.22-24.86,28.63-25.44l1-1.32Z" transform="translate(-38.34 -289.13)" style="fill:#bb9753"/></svg>