<svg id="Layer_1" data-name="Layer 1" xmlns="http://www.w3.org/2000/svg" viewBox="0 0 267 98.33"><title>Air Arabia logo - Brandlogos.net</title><g id="surface1"><path id="path14" d="M457.88,365.43a8.42,8.42,0,0,1-1.7,3,7.57,7.57,0,0,1-2.94,2,11.63,11.63,0,0,1-4.26.7,21.09,21.09,0,0,1-3.05-.18,6.41,6.41,0,0,1-1.53-.35V360.17a8.92,8.92,0,0,1,1.7-5.58,6,6,0,0,1,5.11-2.23,6.32,6.32,0,0,1,5.32,2.5,10.62,10.62,0,0,1,1.91,6.61,13.52,13.52,0,0,1-.56,4m4.87-15.89a12.88,12.88,0,0,0-4.41-2.85,14.54,14.54,0,0,0-5.32-1,11.69,11.69,0,0,0-6.25,1.67,9.4,9.4,0,0,0-1.67,1.26,7.64,7.64,0,0,0-.7.76V335.54l-8.22,2.38v38.76l1.38.2q1,.15,2.55.27l3.47.23q1.94.12,4.05.12,9.57,0,14.42-4.43c3.23-3,4.84-7.23,4.84-12.48a17,17,0,0,0-1.12-6.37,13.48,13.48,0,0,0-3-4.67m-42.11,13.51a8.94,8.94,0,0,1-1.7,5.58,6,6,0,0,1-5.11,2.23,6.31,6.31,0,0,1-5.31-2.5,10.62,10.62,0,0,1-1.91-6.61,13.39,13.39,0,0,1,.56-4,8.32,8.32,0,0,1,1.7-3,7.49,7.49,0,0,1,2.94-2,11.61,11.61,0,0,1,4.26-.7,21.09,21.09,0,0,1,3.05.18,6.24,6.24,0,0,1,1.53.35Zm4.23-16a36.59,36.59,0,0,0-4.17-.91,34.86,34.86,0,0,0-5.64-.41,19.46,19.46,0,0,0-7,1.2,15.32,15.32,0,0,0-5.32,3.38,14.54,14.54,0,0,0-3.38,5.26,20.57,20.57,0,0,0-1.17,7.08,17.19,17.19,0,0,0,1.12,6.43,13.6,13.6,0,0,0,3,4.67,12.13,12.13,0,0,0,4.41,2.82,15.2,15.2,0,0,0,5.34.94,11.61,11.61,0,0,0,3.55-.5,12.76,12.76,0,0,0,2.65-1.14,8.72,8.72,0,0,0,1.7-1.26,7.6,7.6,0,0,0,.73-.79v2.88h8.22v-28c-.2-.12-.63-.34-1.29-.68a17.1,17.1,0,0,0-2.7-1M398,346.88a12.48,12.48,0,0,0-3.74-1.08,19.76,19.76,0,0,0-3.11-.23,23.59,23.59,0,0,0-5,.5,33,33,0,0,0-4,1.12,19,19,0,0,0-2.79,1.21c-.7.39-1.14.65-1.29.76v27.52h8.22v-23a15.28,15.28,0,0,1,1.88-.79,11.42,11.42,0,0,1,3.82-.5,13.57,13.57,0,0,1,1.73.12,10.39,10.39,0,0,1,1.7.32l.14,0q1.28-3.09,2.37-5.78l.08-.2m111.23,16.17a8.94,8.94,0,0,1-1.7,5.58,6,6,0,0,1-5.11,2.23,6.31,6.31,0,0,1-5.31-2.5,10.62,10.62,0,0,1-1.91-6.61,13.5,13.5,0,0,1,.56-4,8.37,8.37,0,0,1,1.71-3,7.5,7.5,0,0,1,2.93-2,11.63,11.63,0,0,1,4.26-.7,21.13,21.13,0,0,1,3.05.18,6.24,6.24,0,0,1,1.53.35Zm6.93-15a17.1,17.1,0,0,0-2.7-1,36.5,36.5,0,0,0-4.17-.91,34.78,34.78,0,0,0-5.64-.41,19.49,19.49,0,0,0-7.05,1.2,15.31,15.31,0,0,0-5.31,3.38,14.5,14.5,0,0,0-3.38,5.26,20.57,20.57,0,0,0-1.17,7.08,17.26,17.26,0,0,0,1.11,6.43,13.66,13.66,0,0,0,3,4.67,12.13,12.13,0,0,0,4.41,2.82,15.2,15.2,0,0,0,5.34.94,11.61,11.61,0,0,0,3.55-.5,12.73,12.73,0,0,0,2.64-1.14,8.65,8.65,0,0,0,1.71-1.26,7.6,7.6,0,0,0,.73-.79v2.88h8.22v-28c-.2-.12-.63-.34-1.29-.68m-39.26-13.21a4.5,4.5,0,0,0-3.23,1.29,4.21,4.21,0,0,0-1.35,3.17,4.32,4.32,0,0,0,1.35,3.2,4.46,4.46,0,0,0,3.23,1.32,4.53,4.53,0,0,0,3.29-1.32,4.31,4.31,0,0,0,1.35-3.2,4.21,4.21,0,0,0-1.35-3.17,4.57,4.57,0,0,0-3.29-1.29m-4.09,41.84h8.22v-31l-8.22,2.37Zm-127.28-16.8c.71-1.91,1.43-3.83,2.16-5.76l2-5.32q.92-2.43,1.63-4.17c.47-1.16.81-2,1-2.37q.3.62,1,2.37t1.62,4.17l2,5.32c.73,1.93,1.45,3.85,2.15,5.76Zm22.8,1.43q-1.48-3.86-3-7.44t-2.72-6.62q-1.24-3.05-2.24-5.32t-1.6-3.52c-.86-2-1.24-2.83-1.24-2.83H347.13s-.38.87-1.24,2.83q-.59,1.25-1.59,3.52T342,347.24q-1.24,3-2.72,6.62t-3,7.44q-1.48,3.86-3,7.78t-2.77,7.59h8.68l3.37-9.09h19.37l3.37,9.09h8.68q-1.3-3.67-2.78-7.59t-3-7.78m-65.78-26.47a4.51,4.51,0,0,0-3.23,1.29A4.21,4.21,0,0,0,298,339.3a4.31,4.31,0,0,0,1.35,3.2,4.47,4.47,0,0,0,3.23,1.32,4.54,4.54,0,0,0,3.29-1.32,4.33,4.33,0,0,0,1.35-3.2,4.22,4.22,0,0,0-1.35-3.17,4.59,4.59,0,0,0-3.29-1.29m-4.08,41.84h8.22v-31l-8.22,2.37Zm-33.08-16.8c.71-1.91,1.43-3.83,2.16-5.76l2-5.32q.91-2.43,1.63-4.17c.47-1.16.81-2,1-2.37q.3.62,1,2.37t1.63,4.17l2,5.32c.73,1.93,1.45,3.85,2.16,5.76Zm22.81,1.43q-1.48-3.86-3-7.44t-2.72-6.62q-1.24-3.05-2.25-5.32t-1.59-3.52c-.87-2-1.24-2.83-1.24-2.83H267s-.38.87-1.24,2.83q-.59,1.25-1.6,3.52t-2.24,5.32q-1.24,3-2.72,6.62t-3,7.44q-1.48,3.86-3,7.78t-2.77,7.59h8.68l3.37-9.09h19.37l3.37,9.09H294q-1.3-3.67-2.77-7.59t-3-7.78M332,352.87q1.27-3.09,2.37-5.78l.08-.2a12.48,12.48,0,0,0-3.74-1.08,19.76,19.76,0,0,0-3.11-.23,23.59,23.59,0,0,0-5,.5,33,33,0,0,0-4,1.12,19,19,0,0,0-2.79,1.21c-.7.39-1.14.65-1.29.76v27.52h8.22v-23a15,15,0,0,1,1.88-.79,11.42,11.42,0,0,1,3.82-.5,13.61,13.61,0,0,1,1.73.12,10.39,10.39,0,0,1,1.7.32l.14,0" transform="translate(-250.5 -334.83)" style="fill:#e81142"/><path id="path16" d="M409.23,411a7.56,7.56,0,0,1-1.44,4.72,5.1,5.1,0,0,1-4.32,1.89,5.35,5.35,0,0,1-4.5-2.11,9,9,0,0,1-1.61-5.59,11.32,11.32,0,0,1,.47-3.35,7,7,0,0,1,1.44-2.56,6.38,6.38,0,0,1,2.49-1.69,9.81,9.81,0,0,1,3.61-.6,18.18,18.18,0,0,1,2.58.15,5.24,5.24,0,0,1,1.29.3Zm45.43-14.4-7,2v18.54h-8.17a5.31,5.31,0,0,1-2.18-.38,2.67,2.67,0,0,1-1.25-1.1,4.55,4.55,0,0,1-.55-1.78,21.45,21.45,0,0,1-.13-2.46V396.61l-6.92,2v12.83a17.3,17.3,0,0,1-.15,2.46,4.85,4.85,0,0,1-.58,1.78,2.72,2.72,0,0,1-1.23,1.1,5.15,5.15,0,0,1-2.16.38h-8.18V398.88c-.17-.1-.53-.29-1.1-.57a14.62,14.62,0,0,0-2.28-.84,30.62,30.62,0,0,0-3.53-.77,29.3,29.3,0,0,0-4.77-.35,16.42,16.42,0,0,0-6,1,13,13,0,0,0-4.5,2.86,12.33,12.33,0,0,0-2.86,4.45,17.38,17.38,0,0,0-1,6,14.57,14.57,0,0,0,.95,5.44,11.59,11.59,0,0,0,2.53,4,10.32,10.32,0,0,0,3.73,2.39,12.9,12.9,0,0,0,4.52.79,9.83,9.83,0,0,0,3-.42,10.59,10.59,0,0,0,2.24-1,7.27,7.27,0,0,0,1.44-1.07,6.52,6.52,0,0,0,.62-.67v3h16.64a9.5,9.5,0,0,0,3.66-.7,5.32,5.32,0,0,0,2.71-2.71,5.5,5.5,0,0,0,2.53,2.71,8.25,8.25,0,0,0,3.49.7h16.4Zm-22.36,28.88a3.85,3.85,0,0,0-2.76,1.1,3.6,3.6,0,0,0-1.15,2.71,3.68,3.68,0,0,0,1.15,2.73,3.81,3.81,0,0,0,2.76,1.13,3.86,3.86,0,0,0,2.81-1.13,3.68,3.68,0,0,0,1.15-2.73,3.6,3.6,0,0,0-1.15-2.71,3.91,3.91,0,0,0-2.81-1.1m-91.21-8.06a15,15,0,0,1-6.73-.12V402.92a8.75,8.75,0,0,1,6.13-1.31c3.38.64,5.76,3.33,5.76,8.21,0,3.86-1.81,6.63-5.16,7.62m35.1-.27h-4.67a5.29,5.29,0,0,1-2.18-.38,2.69,2.69,0,0,1-1.25-1.1,4.55,4.55,0,0,1-.55-1.78,20.74,20.74,0,0,1-.12-2.46V387.11l-7,2v22.32a21.51,21.51,0,0,1-.12,2.46,4.55,4.55,0,0,1-.55,1.78,2.7,2.7,0,0,1-1.23,1.1,5.15,5.15,0,0,1-2.16.38h-4.64a16,16,0,0,0,1.68-7.55c0-7.71-4.41-12.47-10.75-13.18a18.63,18.63,0,0,0-8.31,1.29V387.11l-7,2v28.09h-2.91a5.28,5.28,0,0,1-2.18-.38,2.68,2.68,0,0,1-1.26-1.1,4.55,4.55,0,0,1-.55-1.78,20.68,20.68,0,0,1-.13-2.46V396.61l-6.92,2v12.83a17.25,17.25,0,0,1-.15,2.46,4.73,4.73,0,0,1-.58,1.78,2.73,2.73,0,0,1-1.23,1.1,5.12,5.12,0,0,1-2.15.38h-8.18V396.62l-7,2v24.23a3.86,3.86,0,0,1-1.08,3.14,4.51,4.51,0,0,1-2.93.88,7.77,7.77,0,0,1-2.21-.3c-.67-.2-1.09-.34-1.25-.4l-1.66,4.66.65.28a11.71,11.71,0,0,0,1.41.45,19.62,19.62,0,0,0,2,.4,14.83,14.83,0,0,0,2.31.18,14.46,14.46,0,0,0,3.74-.48,7.61,7.61,0,0,0,3.11-1.66,8.39,8.39,0,0,0,2.13-3.1,12.72,12.72,0,0,0,.8-4.82v1h9.69a9.48,9.48,0,0,0,3.66-.7,5.31,5.31,0,0,0,2.71-2.71,5.49,5.49,0,0,0,2.53,2.71,8.25,8.25,0,0,0,3.49.7h34.66a9.51,9.51,0,0,0,3.66-.7,5.31,5.31,0,0,0,2.71-2.71,5.5,5.5,0,0,0,2.53,2.71,8.25,8.25,0,0,0,3.49.7h12.89v-36l-7,2Zm45.66,8.33a3.85,3.85,0,0,0-2.76,1.1,3.6,3.6,0,0,0-1.15,2.71,3.68,3.68,0,0,0,1.15,2.73,3.81,3.81,0,0,0,2.76,1.13,3.86,3.86,0,0,0,2.81-1.13,3.67,3.67,0,0,0,1.16-2.73,3.59,3.59,0,0,0-1.16-2.71,3.9,3.9,0,0,0-2.81-1.1m21,0a3.85,3.85,0,0,0-2.81,1.13,3.69,3.69,0,0,0-1.16,2.73,3.61,3.61,0,0,0,1.16,2.71,3.9,3.9,0,0,0,2.81,1.1,3.85,3.85,0,0,0,2.76-1.1,3.61,3.61,0,0,0,1.15-2.71,3.69,3.69,0,0,0-1.15-2.73,3.81,3.81,0,0,0-2.76-1.13m67.67-36.35v34h7v-36Zm-12.32,24.71a3.85,3.85,0,0,1-1.08,3.14,4.52,4.52,0,0,1-2.93.88H482a6.89,6.89,0,0,1-.85-.76,7.54,7.54,0,0,1-1.55-2.63,10.63,10.63,0,0,1-.58-3.68,8.69,8.69,0,0,1,2.06-6.21,6.93,6.93,0,0,1,5.27-2.17,8.36,8.36,0,0,1,2.61.37,9.09,9.09,0,0,1,1.95.87l2.72-5.27a10.9,10.9,0,0,0-2.63-1.31,15.61,15.61,0,0,0-5.39-.73,14.22,14.22,0,0,0-5.34,1,12.64,12.64,0,0,0-4.34,2.87,13.75,13.75,0,0,0-2.93,4.54,16,16,0,0,0-1.08,6A16.5,16.5,0,0,0,473,417c.13.31.27.6.41.9H466.9V396.62l-7,2v24.23a3.85,3.85,0,0,1-1.08,3.14,4.51,4.51,0,0,1-2.93.88,7.78,7.78,0,0,1-2.21-.3c-.67-.2-1.09-.34-1.25-.4l-1.65,4.66.65.28a11.51,11.51,0,0,0,1.41.45,19.83,19.83,0,0,0,2,.4,14.83,14.83,0,0,0,2.31.18,14.41,14.41,0,0,0,3.73-.48A7.52,7.52,0,0,0,464,430a8.35,8.35,0,0,0,2.13-3.1,12.79,12.79,0,0,0,.8-4.87v1.11h28.45a14.48,14.48,0,0,0,3.74-.48,7.78,7.78,0,0,0,3.13-1.65,8.2,8.2,0,0,0,2.16-3.11,12.84,12.84,0,0,0,.8-4.89V387.11l-7,2Zm-89.09-20.07a3.86,3.86,0,0,0,2.81-1.13,3.67,3.67,0,0,0,1.16-2.73,3.59,3.59,0,0,0-1.16-2.71,3.89,3.89,0,0,0-2.81-1.11,3.85,3.85,0,0,0-2.76,1.11,3.6,3.6,0,0,0-1.15,2.71,3.68,3.68,0,0,0,1.15,2.73,3.82,3.82,0,0,0,2.76,1.13m-145.5.66a3.86,3.86,0,0,0,2.81-1.13,3.68,3.68,0,0,0,1.16-2.73,3.59,3.59,0,0,0-1.16-2.71,3.91,3.91,0,0,0-2.81-1.1,3.85,3.85,0,0,0-2.76,1.1,3.61,3.61,0,0,0-1.15,2.71,3.7,3.7,0,0,0,1.15,2.73,3.81,3.81,0,0,0,2.76,1.13m135-.66a3.86,3.86,0,0,0,2.81-1.13,3.68,3.68,0,0,0,1.15-2.73,3.6,3.6,0,0,0-1.15-2.71,3.9,3.9,0,0,0-2.81-1.11,3.84,3.84,0,0,0-2.76,1.11,3.6,3.6,0,0,0-1.16,2.71,3.68,3.68,0,0,0,1.16,2.73,3.8,3.8,0,0,0,2.76,1.13M269.74,408.07c0,4.46,0,9.5-6.13,9.5s-6.13-5-6.13-9.5v-5.93l-7,2v3.64c0,.22,0,.45,0,.67a20.83,20.83,0,0,0,1.07,6.58,13.52,13.52,0,0,0,2.88,4.86,10.78,10.78,0,0,0,4.22,2.73,15.19,15.19,0,0,0,5.1.85,15.62,15.62,0,0,0,4.83-.75,10.45,10.45,0,0,0,4.13-2.54,12.49,12.49,0,0,0,2.88-4.71,21.44,21.44,0,0,0,1.08-7.3V396.62l-6.95,2Zm47.48,17.42a3.85,3.85,0,0,0-2.76,1.1,3.6,3.6,0,0,0-1.15,2.71,3.68,3.68,0,0,0,1.15,2.73,3.81,3.81,0,0,0,2.76,1.13A3.86,3.86,0,0,0,320,432a3.68,3.68,0,0,0,1.15-2.73A3.6,3.6,0,0,0,320,426.6a3.91,3.91,0,0,0-2.81-1.1m-28.29-38.42-7,2v34h7Zm17.84,38.42a3.85,3.85,0,0,0-2.76,1.1,3.6,3.6,0,0,0-1.15,2.71A3.68,3.68,0,0,0,304,432a3.81,3.81,0,0,0,2.76,1.13,3.86,3.86,0,0,0,2.81-1.13,3.68,3.68,0,0,0,1.16-2.73,3.6,3.6,0,0,0-1.16-2.71,3.9,3.9,0,0,0-2.81-1.1" transform="translate(-250.5 -334.83)" style="fill:#e81142"/></g></svg>