<svg id="Layer_1" data-name="Layer 1" xmlns="http://www.w3.org/2000/svg" viewBox="0 0 363.78 120.85"><title>Air India Express logo - Brandlogos.net</title><g id="layer1"><g id="g10"><path id="path6791" d="M264.15,323.57l-4.25,8.07c-2.34,4.44-4.25,8.12-4.25,8.18s3,.1,6.67.1H269l1.53-2.58c.84-1.42,1.57-2.58,1.62-2.58s.92,1.17,1.95,2.59l1.86,2.58H289l-1.45-1.58-2.2-2.41-.75-.84.53-.1a10.78,10.78,0,0,0,3.24-1c.68-.46,2-2.43,3.22-4.91a7.43,7.43,0,0,0,1.08-3,1.74,1.74,0,0,0-1.21-2.12l-.78-.38-13.27,0Zm-18.15,0-1.39,2.55L242,330.94l-1.9,3.48c-.55,1-2.74,5-3,5.38,0,.07,3,.1,6.69.08l6.76,0,1.63-3,4.42-8.07c1.53-2.79,2.78-5.1,2.78-5.14s-3-.06-6.69-.06Zm86.89,0-3.76,7.16c-2.07,3.94-4,7.62-4.32,8.17l-.56,1,5.53,0,5.54,0L337,337a30,30,0,0,1,1.8-2.87,18.78,18.78,0,0,1,1.65,2.87l1.51,2.91h13.23l.76-1.42c.42-.78,1-1.89,1.36-2.47s.91-1.63,1.29-2.34,1.44-2.64,2.35-4.29,2-3.63,2.41-4.41l.76-1.42h-11l-1.91,3.17c-1.51,2.5-1.95,3.12-2.08,2.93s-.9-1.56-1.79-3.17l-1.62-2.93H332.88Zm36.29,0-.43.77-.91,1.66c-2.78,5.09-7.1,13-7.34,13.4l-.31.53,14.68,0,14.68,0,1-.49c1.26-.63,2-1.38,3.24-3.29s3.45-5.92,4.64-8.37c.74-1.53,1-2.68.6-2.41-.12.07-.14,0-.06-.09s-.64-1.12-1.32-1.41c-.43-.18-3-.22-14.48-.22Zm57.55,0-1.94,2.31-3.51,4.17-3.89,4.61-3.37,4c-.93,1.09-1,1.25-.73,1.32s1.61.1,3.18.11,2.9.05,2.94.09,1.32.07,2.84.07H425l1-1.21,1-1.21h3a25,25,0,0,1,3,.09,9.66,9.66,0,0,1-.48,1.05l-.48,1h12.4L445,338c.28-1,.91-3.32,1.38-5.06,1.78-6.45,2.34-8.51,2.44-8.94l.1-.45H426.72Zm-199.66,0H215.92l-2.59,3.1c-2.79,3.34-7.81,9.3-9.82,11.67a7.85,7.85,0,0,0-1.16,1.55s1.52.13,3.27.18,4.43.1,6,.12c2.71,0,2.78,0,3-.33a14.82,14.82,0,0,1,1.34-1.62l.4-.45h3a26.46,26.46,0,0,1,3,.09,9.9,9.9,0,0,1-.49,1.05l-.49,1h12.41l.17-.69c.14-.58,3.94-14.5,4.2-15.37C238.19,323.59,237.59,323.58,227.06,323.59Zm91.5,0c-2.4,0-4.13,0-4.18.09s-3.64,6.5-5.09,9.21c-.42.79-1,1.91-1.37,2.49s-1,1.84-1.53,2.79l-.93,1.74H318.9l.85-1.58,1.17-2.14,1.42-2.59c.6-1.11,2.08-3.81,3.28-6l2.19-4-6.66,0h-2.59Zm91,0c-2.42,0-4.13,0-4.15.09s-2,3.64-4.34,7.93-4.34,7.92-4.39,8.05.76.24,6.6.24H410l2.67-4.88,3.51-6.43c.46-.85,1.27-2.32,1.79-3.25l.95-1.7-6.72,0h-2.61Zm-182.73,2a16,16,0,0,1-.73,2.06l-1.58,4.06-.8,2.06h-2a6.73,6.73,0,0,1-2-.15.23.23,0,0,1,.14-.2,53.82,53.82,0,0,0,4.27-5.05c-.05-.05,0-.1.08-.1a7.73,7.73,0,0,0,1.35-1.38,9.58,9.58,0,0,1,1.23-1.31Zm210.61.09,0,0a16.37,16.37,0,0,1-.86,2.5l-1.55,4-.61,1.58h-1.93a7.68,7.68,0,0,1-1.93-.12,1.64,1.64,0,0,1,.37-.53c.2-.22.8-.92,1.34-1.55s1.84-2.16,2.91-3.39,2-2.32,2.06-2.41a.19.19,0,0,1,.16-.1Zm-56.8,1.95h1.21c1.16,0,1.78.17,2,.55s.17.57,0,1.17a23.22,23.22,0,0,1-1.26,2.82,27.76,27.76,0,0,0-1.39,3c0,.12,0,.18-.05.14a2.44,2.44,0,0,0-.88.23,10,10,0,0,1-3.7.23c-.2-.06-.19-.16,0-.33s1-1.88,2.12-4Zm-105.35.29,1.57.11c.86.06,1.69.14,1.85.19a.59.59,0,0,1,.4.55,2.29,2.29,0,0,1-.15,1,3.37,3.37,0,0,1-1.43,1.83,8.21,8.21,0,0,1-3.24.14l-.44-.14c-.21-.07-.09-.41.92-2.56Zm290.62,22.35a19,19,0,0,0-1.94,1.2c-3.69,2.4-10.06,6.31-12.89,7.9l-.67.38.43.77a3.29,3.29,0,0,0,.51.78c.2,0,4.6-3.2,8.25-6C564.25,351.66,566.09,350.21,565.87,350.26Zm-142.55,2.21q-1.21,0-2.45.09c-6.68.47-11.43,2.48-15.85,6.73-5.05,4.85-7.49,11-7.87,20a33.38,33.38,0,0,0,2.93,15.88c3.62,7.21,10.13,11.67,18.76,12.83h0a46,46,0,0,0,11.89-.33,26.52,26.52,0,0,0,9-3.5,23.82,23.82,0,0,0,8-10.83c.41-1,.74-2,.74-2a34.35,34.35,0,0,0-4.33-.59c-2.38-.25-4.52-.48-4.76-.53-.4-.08-.49,0-1.5,2-2.05,3.94-3.92,6-6.46,7.26a16.88,16.88,0,0,1-8,1.54,15.71,15.71,0,0,1-10-3.24c-2.66-2-4.73-5.62-5.74-10.19a27.62,27.62,0,0,1-.62-4.78s9.37-.07,20.74-.07h20.67l.17-.44a32.31,32.31,0,0,0-.1-7.24,28.1,28.1,0,0,0-4.34-12.28,23.81,23.81,0,0,0-21-10.2Zm-194.85,0a36.93,36.93,0,0,0-6.16.47,23.59,23.59,0,0,0-17.07,12.78c-2,4.14-2.92,8-3.1,13.67-.2,6.22.7,11.16,2.88,15.66.51,1.06.87,1.63,1,1.55s.14,0,.07.07c-.17.28,1.41,2.48,3,4.11A24.44,24.44,0,0,0,223.71,408h0a54.52,54.52,0,0,0,9,.09,27.84,27.84,0,0,0,10-2.78,21.33,21.33,0,0,0,9.16-10,25.27,25.27,0,0,0,1.6-4.11s-2-.23-4.33-.48-4.51-.48-4.78-.52c-.47-.08-.51,0-1,1a20.41,20.41,0,0,1-5.11,7.08,13,13,0,0,1-4.86,2.21,28.92,28.92,0,0,1-8.91.07,14.86,14.86,0,0,1-6.39-3.19A12,12,0,0,1,215,393.6a25.44,25.44,0,0,1-2.82-9.61l-.11-1.35,20.37,0c11.2,0,20.54,0,20.74-.06a1,1,0,0,0,.49-.15c.24-.24.09-6.75-.19-8.42-1.07-6.29-3.28-10.91-7-14.57-4.22-4.19-9.38-6.4-16-6.87-.63,0-1.3-.07-2-.07Zm249.26.36c-.65,0-1.25,0-1.75,0a28,28,0,0,0-10,2.42,18.37,18.37,0,0,0-4.8,3.3A15.56,15.56,0,0,0,457.51,369a12.65,12.65,0,0,0,1.47,5.3,9.21,9.21,0,0,0,2.06,3c2,2,4.41,3.36,8.46,4.68,1.86.61,7.33,2,9.39,2.4a85.29,85.29,0,0,1,10.68,3.28,1.79,1.79,0,0,1,.53.47.68.68,0,0,0,.41.3c.16,0,3.28-1.32,8.8-3.73a1.89,1.89,0,0,0,.69-.4,8.61,8.61,0,0,0-1.87-2.26,17.09,17.09,0,0,0-3.19-2c-.08,0-1-.39-2-.87a44.14,44.14,0,0,0-8.86-2.84,113.32,113.32,0,0,1-13.86-4,9.19,9.19,0,0,1-3.41-3.34,5.27,5.27,0,0,1,0-3.64,8,8,0,0,1,5.14-4.44,26.06,26.06,0,0,1,10.34-.52c4.45,1,7.74,3.88,8.54,7.55l.2.9,4.51-.5c2.48-.27,4.56-.55,4.62-.61a18.7,18.7,0,0,0-1.24-4.6,15.49,15.49,0,0,0-2.9-4.61c-1-1.13-3-2.48-3.28-2.29-.1.06-.14,0-.08-.05s-2.29-1.34-4-1.88a33.67,33.67,0,0,0-10.86-1.44Zm53.34,0a29.13,29.13,0,0,0-10.23,1.7,12.85,12.85,0,0,0-3.29,1.75s0,.08-.15.08a8.42,8.42,0,0,0-3.14,2.24,15.64,15.64,0,0,0-3.59,7.57,16.45,16.45,0,0,0,.25,5.54,13.77,13.77,0,0,0,2.61,4.95c.59.7,1.1,1.28,1.13,1.28s1.75-.82,3.82-1.83,4.33-2.07,5-2.38a5.21,5.21,0,0,0,1.26-.66,2.83,2.83,0,0,0-.92-.49,8.36,8.36,0,0,1-1.6-.9,2,2,0,0,0-.78-.46c-.05,0-.06,0,0,0s-.17-.38-.46-.73a10.71,10.71,0,0,1-1-1.48,4.38,4.38,0,0,1,0-4,8.59,8.59,0,0,1,2.74-3.08,15.62,15.62,0,0,1,4.54-1.51,28.68,28.68,0,0,1,8,0c2.19.46,4.78,1.63,5.58,2.51a4.74,4.74,0,0,0,.85.67l.54.33,3-1.53c2.55-1.32,4.59-2.44,4.79-2.63a3.61,3.61,0,0,0-.63-.88c-1.92-2.29-5.89-4.31-10.3-5.24a35.43,35.43,0,0,0-8-.78Zm-195.57,0a17.39,17.39,0,0,0-11.72,3.92,20,20,0,0,0-3.45,3.22l-.77.89v-7h-9.39V428h9.71V415.22c0-11.9,0-12.71.27-12.34a16.16,16.16,0,0,0,6.53,4.67,37.09,37.09,0,0,0,6.62,1.31,24.46,24.46,0,0,0,13.12-2.62q11.66-6.36,13.87-20.43a48.67,48.67,0,0,0,0-10.86,24.6,24.6,0,0,0-12.16-18.86,24.52,24.52,0,0,0-12.62-3.25Zm-43.08,1.32-1.67,2.38a22,22,0,0,0-1.67,2.59c0,.11,0,.18-.07.13s-1.67,2.13-5.35,7.52c-1.94,2.84-4.39,6.22-4.55,6.28s-.3-.24-.5-.6-.44-.6-.52-.55-.11,0,0-.09a8.17,8.17,0,0,0-1.24-2.25c-1.49-2.27-10.24-14.88-10.55-15.21-.15-.16-1.48-.2-6-.16l-5.77,0,.81,1.13,1.26,1.78c2.3,3.29,13.2,18.71,15.47,21.9l.5.7-.32.55c-.18.3-1.27,1.92-2.44,3.59-1.94,2.79-6.79,9.81-12.35,17.9l-3.24,4.69c-.57.82-1.14,1.65-1.27,1.85h0l-.23.36H264l1.75-2.55,2.64-3.85,2.69-3.88c1.94-2.78,3.74-5.42,6.27-9.14a27.65,27.65,0,0,1,1.72-2.39c.07,0,.26.16.43.4s.94,1.28,1.73,2.29,4,5.73,7.2,10.48l5.76,8.63h5.65c4.4,0,5.62,0,5.53-.2-.41-.72-2.9-4.28-3.11-4.45s-.2-.2-.13-.2a30.13,30.13,0,0,0-1.89-3l-5.62-8.29-6.09-9c-1.37-2-2.48-3.71-2.48-3.76s1.28-2,10-14.51c4.1-5.91,7.51-10.84,7.57-11s-1-.2-5.53-.2Zm74.39.32v53.73h9.52l.07-16c.06-14,.1-16.19.35-17.74a13.29,13.29,0,0,1,3.69-8c2.85-3,6-4.16,9.73-3.64a36.05,36.05,0,0,1,4.84,1.24c.22.09.33-.22,1.65-4.7.31-1.07.64-2.07.73-2.22s0-.36-.93-.83a15.71,15.71,0,0,0-14-.41,15.12,15.12,0,0,0-4.59,3.45,16,16,0,0,1-1.4,1.39,27.41,27.41,0,0,1-.09-3.16v-3.15h-9.55Zm-138.77,5.2c.36,0,.73,0,1.1,0a17.76,17.76,0,0,1,5,.95,15.1,15.1,0,0,1,4.22,2.38,11.42,11.42,0,0,1,2.38,2.49,15.86,15.86,0,0,1,1.77,3.42,26.46,26.46,0,0,1,1.32,5.54l.07.85H212.4l.11-1a18.61,18.61,0,0,1,1-4.19,16.76,16.76,0,0,1,1.83-3.67,15.61,15.61,0,0,1,2.62-3,15.28,15.28,0,0,1,3.33-2.25A14,14,0,0,1,225,360a16.25,16.25,0,0,1,3.08-.27Zm195,0a20,20,0,0,1,4,.31,15.7,15.7,0,0,1,4,1.41,14.6,14.6,0,0,1,3.35,2.39,11,11,0,0,1,2.61,3.69,17.51,17.51,0,0,1,1.22,3.19,24.74,24.74,0,0,1,.72,3.78l.1.85H407.42l.11-.93a18.93,18.93,0,0,1,1.28-5,16.65,16.65,0,0,1,2.5-4.21,15.1,15.1,0,0,1,3.53-3.16,14.67,14.67,0,0,1,4.39-1.89,18.12,18.12,0,0,1,3.83-.37Zm128,2h0l-2.54,1.74L545,365.9a6.77,6.77,0,0,0-1.26,1,3.43,3.43,0,0,0,.11,1.06l.18.87,4.52-.5c2.49-.28,4.56-.54,4.61-.59a14.11,14.11,0,0,0-.68-3.29c-.43-1.32-1.16-2.75-1.38-2.72Zm-214.73.8a13.76,13.76,0,0,1,2.36.23,13.43,13.43,0,0,1,3,.91,13.74,13.74,0,0,1,2.67,1.55,14.67,14.67,0,0,1,2.31,2.14,16.14,16.14,0,0,1,1.89,2.68,18.14,18.14,0,0,1,1.4,3.18,20.69,20.69,0,0,1,.85,3.62,36.41,36.41,0,0,1,0,7,21.59,21.59,0,0,1-1.38,5.41,17.63,17.63,0,0,1-2.57,4.44,15,15,0,0,1-3.6,3.26,14.07,14.07,0,0,1-4.46,1.88,15.5,15.5,0,0,1-3.07.39,15.19,15.19,0,0,1-3-.22,15,15,0,0,1-5.64-2.24,13.8,13.8,0,0,1-2.94-2.61,15.29,15.29,0,0,1-2.18-3.42,19.77,19.77,0,0,1-1.4-4.19,27.65,27.65,0,0,1-.59-4.93,23.53,23.53,0,0,1,.31-5.09,19,19,0,0,1,1.44-4.52,14.81,14.81,0,0,1,1.81-3,17.75,17.75,0,0,1,5.48-4.63,15.13,15.13,0,0,1,6.58-1.85h.81Zm194.3,12.11-2,1.13a11.28,11.28,0,0,0-2,1.24c0,.06,0,.09-.15.08a53.32,53.32,0,0,0-6.62,3.8c.39.36,6,2,11.27,3.32,3.73.93,8.55,2.35,10.48,3.1a6,6,0,0,1,3,2.54,9.5,9.5,0,0,1,1,4.26,8.18,8.18,0,0,1-1.55,3.25,2.31,2.31,0,0,0-.55.9c0,.09,0,.12-.06.05s-.52.23-1,.64a14.15,14.15,0,0,1-7.4,2.64,14.73,14.73,0,0,1-5.65-.41c-3.55-.9-7.72-3-8.66-4.37a22.15,22.15,0,0,1-2.52-5.79c-.1-.51-.17-.59-.46-.52s-2.09.34-4.23.65c-5.29.77-4.76.61-4.58,1.42,1.27,5.68,5.78,11.74,10.17,13.66a31.11,31.11,0,0,0,9,2.2,89.11,89.11,0,0,0,10.76-.29,25.62,25.62,0,0,0,8-2.77,15.85,15.85,0,0,0,4.31-3.3,9.06,9.06,0,0,0,2.37-3.24,14.39,14.39,0,0,0,1.77-6.39A12.4,12.4,0,0,0,552,383c-1.42-1.51-2.3-2.1-5-3.38-3.44-1.6-6.2-2.48-12.13-3.85-1.34-.31-2.83-.7-3.32-.86Zm-28.74,15.13-.64.32c-.35.18-2.44,1.1-4.65,2s-4.09,1.78-4.19,1.86a1.6,1.6,0,0,0-.28.75,6.32,6.32,0,0,1-1.77,3.11c-3,3-7.2,4.2-12.57,3.71l-2.23-.2-5.52,2.09-5.52,2.09.68.35a30.59,30.59,0,0,0,9.1,2.47,78.17,78.17,0,0,0,11.33-.19c5.52-1.06,9-2.73,12.27-5.93a14.58,14.58,0,0,0,3.92-6.91,14.06,14.06,0,0,0,.24-4.88Zm-37.3.77c-1,.12-8.14,1.19-8.45,1.26s-.37.14-.26.77a23.26,23.26,0,0,0,2.88,6.79,5.56,5.56,0,0,0,.77,1.09c.12,0,8.29-2.93,8.38-3s-.67-1-.82-.93-.13,0-.06-.08,0-.4-.22-.67A12.49,12.49,0,0,1,465.3,392c-.31-1.23-.41-1.45-.67-1.42ZM459,401l-3.51,1.26c-10.94,3.93-25.18,8.56-35.31,11.49l-5,1.46A706.44,706.44,0,0,1,334.94,433c-16.92,2.69-39.86,5.53-51.14,6.32-21.29,1.49-43.54-.26-57.69-4.54-10.6-3.21-17.16-7.08-22.56-13.33l-.7-.81.45.81c2,3.63,6.29,7.76,11.27,10.86A79.15,79.15,0,0,0,224,437c11.05,4.34,24.19,6.7,41.09,7.37,3,.12,12.58.09,16.26-.05,27.34-1,61.66-5.64,94.42-12.64,13-2.77,29.22-6.82,39.89-9.94l4-1.15c8.29-2.36,24.09-7.58,34.63-11.43,4.29-1.57,9.47-3.58,9.47-3.68a5.86,5.86,0,0,0-1-.81,22.57,22.57,0,0,1-2.36-2.16Z" transform="translate(-202.11 -323.57)" style="fill:#e41b47"/></g></g></svg>