<svg id="Layer_1" data-name="Layer 1" xmlns="http://www.w3.org/2000/svg" viewBox="0 0 656 227.93"><title>Etihad Airways logo - Brandlogos.net</title><g id="Layer_1-2" data-name="Layer 1-2"><polygon points="350.14 20.68 358.89 11.88 366.89 19.98 367.69 20.68 358.89 29.47 350.14 20.68" style="fill:#bd8b13"/><polygon points="367.74 20.68 376.48 11.88 384.49 19.93 385.28 20.68 376.48 29.47 367.74 20.68" style="fill:#bd8b13"/><path d="M411.81,378.09a8.78,8.78,0,0,1-4.08-.94c-3.33-1.34-5.22-5-5.22-10.29a10.81,10.81,0,0,1,.1-1.79v-1.39h-74.4V296.73c0-2.83-1.84-3.63-3.43-4.47-1.29-.7-2.68-1.39-2.93-3.33v-1a97.17,97.17,0,0,0,17.64-17.35v81.81h63.12v-3.23c-.1-2.78-.3-8.65-14.11-8.75,0,0-6.46.1-12.87.1-3.63,0-7.21,0-9.69-.15-4-.3-6.16-4.72-6.21-8.7a7,7,0,0,1,2.83-6.11l.94-.65.55,1.09c1.24,2.39,6.46,3.48,16.35,3.48h.94c3.88,0,8.4-.1,13.57-.25h.84c16.7,0,18.59,14.51,18.64,20.73v2.44h16.55V327.59s.25-1.79-3.23-3.68a6.08,6.08,0,0,1-2.78-3.93c13.37-9.69,17-17.89,17-17.89v61.58H414.29v.89c0,3.68.7,8.5,2.88,10.14l1.19.94-1.29.8a10.14,10.14,0,0,1-5.32,1.64Z" transform="translate(-56 -270.04)" style="fill:#bd8b13"/><path d="M278.91,373v-9.29H240.79V352.19h48.56V367.3S288.8,372,298,372c5.77,0,5.81-5.57,5.81-5.81V339.32c0-3.73-2.49-4.22-4.32-4.22h-58.7V301.6s6.71,8.4,13.62,12.33c1.09.7.5,2.53-2.88,4.67-.7.4-1.54.8-1.54,1.74v4.22H308c6.81.1,7.41,7.21,7.41,9.39v38.47s-.55,10.44-17.25,10.44c-20.48-.1-19.23-9.79-19.23-9.79Z" transform="translate(-56 -270.04)" style="fill:#bd8b13"/><path d="M509.47,363.67V270.09l2,3.23s1.49,2.39,7.41,7.55a31.47,31.47,0,0,0,6.46,4.67c1,.45,1.84.8,1.84,1.89v.94c-.25,1.94-1.64,2.68-2.93,3.38-1.59.84-3.08,1.64-3.23,4.47-.2,2.14,0,67.49,0,67.49H509.47Z" transform="translate(-56 -270.04)" style="fill:#bd8b13"/><path d="M454.85,375.75,466.58,364l-14.16-14V270.19s6.21,11.88,14.61,17.69v.89a4.17,4.17,0,0,1-2.34,3.23,4.67,4.67,0,0,0-2.58,4.52c-.15,2,0,46.72,0,47.46l11.83,12.23L485.66,344s.15-45.28,0-47.46a4.88,4.88,0,0,0-2.58-4.57,4.07,4.07,0,0,1-2.34-3.23v-.65c9.24-6,14.56-18,14.56-18v78.83L481,363.92l11.78,11.88-18.94,19Zm19,7.9,7.85-7.9-7.85-8-8,8Z" transform="translate(-56 -270.04)" style="fill:#bd8b13"/><path d="M424.88,483.25l20-21.47V419.29c0-.3.4-.65.4-.65l2.88-1.44v-2.44H421.3v2.39l2.78,1.79c.8.5.84.8.84,1.09v24.45H371.15L359,459.89V420.18l.1-.75a3.25,3.25,0,0,1,.65-.45l2.53-1.59.25-.15v-2.44H335.67v2.39l2.63,1.69a3.93,3.93,0,0,0,.65.4h0v73l-.15.94a4.37,4.37,0,0,1-.5.5l-2.68,1.79v2.34h26.89v-2.39l-2.78-1.79-.7-.4h0v-33.5l2.88.89,3.73-2.14a6.59,6.59,0,0,1,1.69-.8,5.13,5.13,0,0,1,1.49-.2h56.06Z" transform="translate(-56 -270.04)" style="fill:#bd8b13"/><path d="M710.51,447.22c-3.13-9.94-10.34-18.14-21.47-24.3-10-5.57-24.15-8.3-43.29-8.3H572.64V417s3.08,2,3.18,2h0v8.65H645.6c14.11,0,24.45,1.89,30.67,5.57,9.94,5.81,14.81,13.37,14.86,23.11a24.19,24.19,0,0,1-3.88,13.27,30,30,0,0,1-11.63,9.94c-6.76,3.53-17,5.27-30.62,5.27H608.62V433.75H588.69V492.4l-.15.84-.55.55-2.39,1.54-.2.15v2.39H645.1c11.48,0,20.48-.65,26.84-1.94a63.91,63.91,0,0,0,22.86-9.34c6.66-4.47,11.38-9.64,14.11-15.36A32,32,0,0,0,712,457.46a35.66,35.66,0,0,0-1.54-10.19Z" transform="translate(-56 -270.04)" style="fill:#bd8b13"/><path d="M448.14,494.68a4,4,0,0,1-1.09-.3l50.1-52.09L485.56,430l-64.81,67.74h29.82v-2.83h-1.09a7,7,0,0,1-1.39-.15Z" transform="translate(-56 -270.04)" style="fill:#bd8b13"/><path d="M490.93,426.69l12.87,13.57L517,453.58H494.61L482.33,466.4l2.63,1.84,2.88-1.54a2.45,2.45,0,0,1,.8-.25H529l26.39,28.18s-.4.5-2.68.5h-1.09V498h29.82l-79.07-83.3-11.48,12Z" transform="translate(-56 -270.04)" style="fill:#bd8b13"/><path d="M299.29,417.1l2.68,1.74c.6.4.94.8.94,1.14v72.26l-.2.94a9,9,0,0,1-.75.6l-2.73,1.74V498h26.64v-2.39l-2.44-1.74a5.89,5.89,0,0,0-.6-.4h0v-74.1l.7-.55,2.44-1.64v-2.44H299.34v2.44Z" transform="translate(-56 -270.04)" style="fill:#bd8b13"/><path d="M187.61,481.91l-3.53,2a9,9,0,0,1-1.54.8l-59.64.15c-13.62,0-24-1.79-30.76-5.27-10.29-5.37-15.26-12.92-15.31-23.26a23.52,23.52,0,0,1,4-13.07c5.12-7.55,12.57-12.72,23.16-14.71a45.35,45.35,0,0,1,7.31-.65H142c1.84-.1,1.54.35,1.64.55l-.35,2.14h2.53L159,414.71H122.3a185.62,185.62,0,0,0-19.68.8,65.77,65.77,0,0,0-7,1.24,63.88,63.88,0,0,0-17.4,6.76c-9,5.07-15.46,11.53-19.09,19.18A33.93,33.93,0,0,0,56,457.36c0,13.42,7.21,24.1,21.47,31.81A67.18,67.18,0,0,0,99,496.42a154.92,154.92,0,0,0,24,1.44h55.47l13.22-16.05h-1.09l-2.93.1Z" transform="translate(-56 -270.04)" style="fill:#bd8b13"/><path d="M161.12,461.88,174,445.73H87.11L78.37,458.8h78.38c1.49.15,2,.55,2,.8l-.35,2.29Z" transform="translate(-56 -270.04)" style="fill:#bd8b13"/><path d="M155.75,429.92l2.49.84.35.1,3.78-1.89a5.71,5.71,0,0,1,3.18-1.09H213.6v64.36l-.2.89a4.17,4.17,0,0,1-.6.5l-2.73,1.79v2.39h26.84v-2.44l-2.78-1.64-.65-.6V427.94h42.59c1.64.2,1.84.55,1.84.6v2.29h2.39l13.27-16.1H167.93L155.8,429.92Z" transform="translate(-56 -270.04)" style="fill:#bd8b13"/></g></svg>