<svg id="Layer_1" data-name="Layer 1" xmlns="http://www.w3.org/2000/svg" xmlns:xlink="http://www.w3.org/1999/xlink" viewBox="0 0 246.29 69.77"><defs><clipPath id="clip-path" transform="translate(-260.75 -349.11)"><rect x="474.24" y="367.45" width="6.45" height="6.19" style="fill:none"/></clipPath><clipPath id="clip-path-2" transform="translate(-260.75 -349.11)"><rect x="368.51" y="373.12" width="23.47" height="29.4" style="fill:none"/></clipPath><clipPath id="clip-path-3" transform="translate(-260.75 -349.11)"><rect x="395.07" y="378.8" width="23.21" height="23.73" style="fill:none"/></clipPath><clipPath id="clip-path-4" transform="translate(-260.75 -349.11)"><rect x="421.38" y="378.8" width="23.47" height="23.73" style="fill:none"/></clipPath><clipPath id="clip-path-5" transform="translate(-260.75 -349.11)"><rect x="474.24" y="378.8" width="6.45" height="23.73" style="fill:none"/></clipPath><clipPath id="clip-path-6" transform="translate(-260.75 -349.11)"><rect x="483.79" y="378.8" width="23.47" height="23.73" style="fill:none"/></clipPath></defs><title>Saudia Airlines logo - Brandlogos.net</title><path d="M308.33,349.11a6.82,6.82,0,0,1,1.33,3.31,4.77,4.77,0,0,1,4.57-1.05,4.91,4.91,0,0,0-1.94,1.7,13.41,13.41,0,0,1,13.33,6.14c0,.08-.09.1-.16,0a15.73,15.73,0,0,0-10.83-3q8.95,2.2,10.38,11.28a36.21,36.21,0,0,0-6.67-6.19,11.49,11.49,0,0,0-2.26-1.21,13.94,13.94,0,0,1,3,11.44,19.3,19.3,0,0,0-6.06-9.54,27.72,27.72,0,0,1,.32,8.73,15.41,15.41,0,0,1-.53,2.51,77.34,77.34,0,0,0-2.38-7.84,14.52,14.52,0,0,0-2.1-3.8,15.51,15.51,0,0,0-2.1,4,78.76,78.76,0,0,0-2.34,7.68,24.73,24.73,0,0,1-.2-11.24,19,19,0,0,0-6,9.54,13.7,13.7,0,0,1,3-11.44,18.93,18.93,0,0,0-4,2.51,34.38,34.38,0,0,0-4.85,4.85,12.4,12.4,0,0,1,8.4-10.67,13.31,13.31,0,0,1,1.94-.57,13.68,13.68,0,0,0-5.66.49,18.7,18.7,0,0,0-5.33,2.55,13.4,13.4,0,0,1,6.87-5.62,14.72,14.72,0,0,1,6.46-.57,5.11,5.11,0,0,0-1.94-1.74,4.91,4.91,0,0,1,4.52,1A10.37,10.37,0,0,1,308.33,349.11Z" transform="translate(-260.75 -349.11)" style="fill:#006936;fill-rule:evenodd"/><path d="M260.9,367.14q22.3,4.36,44.56,8.89.34,7.29.53,14.55a102.44,102.44,0,0,0-14.46-6.1,33.09,33.09,0,0,0-16-1.21,55,55,0,0,1,9.62,1.13,66.49,66.49,0,0,1,11.15,4.29q4.24,2.12,8.32,4.49-6.65,4.11-13.49,7.92,1.1,1.37,2.34,2.63a.2.2,0,0,0,.24,0q6.18-4,12.48-7.8.52,11.49.85,23Q300.3,411.43,293.5,404a26.3,26.3,0,0,1-4.4,2.3,17.62,17.62,0,0,1-9.21.49q-1.65-.42-3.31-.81a26.31,26.31,0,0,0,14.3-4.93q-15.09-16.6-30.1-33.27A.67.67,0,0,1,260.9,367.14Z" transform="translate(-260.75 -349.11)" style="fill:#006936;fill-rule:evenodd"/><path d="M355.36,367.14q.85-.18.69.65-15.09,16.6-30.1,33.27a26,26,0,0,0,14.3,4.93q-2.56.68-5.17,1.13a16.94,16.94,0,0,1-9.94-2L323.28,404l-13.49,14.88-.08-.44q.42-11.26.93-22.52,6.27,3.86,12.48,7.8a.2.2,0,0,0,.24,0q1.14-1.32,2.34-2.59-6.83-3.86-13.49-8a93.77,93.77,0,0,1,16.24-7.8,30.88,30.88,0,0,1,6.22-1.54q3.3-.42,6.63-.57a33.08,33.08,0,0,0-15.76,1.13,103.39,103.39,0,0,0-14.71,6.19q.14-7.28.53-14.55Z" transform="translate(-260.75 -349.11)" style="fill:#006936;fill-rule:evenodd"/><path d="M453.93,385h11.4V396.3h-11.4Zm11.4-17.33h5.92v34.51h-5.92q0-2.82-.07-5.63l-5.56,5.56q-5.77.11-11.54.07,0-8.74.07-17.47l5.56-5.56q5.77-.11,11.54-.07Z" transform="translate(-260.75 -349.11)" style="fill:#006936;fill-rule:evenodd"/><g style="clip-path:url(#clip-path)"><path d="M474.57,367.71h5.92v5.78h-5.92Z" transform="translate(-260.75 -349.11)" style="fill:#006936;fill-rule:evenodd"/></g><g style="clip-path:url(#clip-path-2)"><path d="M374.27,373.34h17.46v5.92H374.56v5.63h17.17q0,5.78-.07,11.55l-5.7,5.7q-8.66.11-17.32.07V396.3h17.17v-5.63H368.65q0-5.85.07-11.7Q371.54,376.19,374.27,373.34Z" transform="translate(-260.75 -349.11)" style="fill:#006936;fill-rule:evenodd"/></g><g style="clip-path:url(#clip-path-3)"><path d="M401,385h11.4V396.3H401Zm-.14-5.92h17.32v23.1h-5.77q0-2.82-.07-5.63l-5.56,5.56q-5.77.11-11.54.07,0-8.74.07-17.47Q398.09,382,400.83,379.12Z" transform="translate(-260.75 -349.11)" style="fill:#006936;fill-rule:evenodd"/></g><g style="clip-path:url(#clip-path-4)"><path d="M421.61,379.12h5.92V396.3h11.26V379.12h5.92q0,8.66-.07,17.33l-5.7,5.7q-8.66.11-17.32.07Z" transform="translate(-260.75 -349.11)" style="fill:#006936;fill-rule:evenodd"/></g><g style="clip-path:url(#clip-path-5)"><path d="M474.57,379.12h5.92v23.1h-5.92Z" transform="translate(-260.75 -349.11)" style="fill:#006936;fill-rule:evenodd"/></g><g style="clip-path:url(#clip-path-6)"><path d="M489.86,385h11.26V396.3H489.86Zm-.29-5.92H507v23.1h-5.92q0-2.82-.07-5.63l-5.56,5.56q-5.77.11-11.54.07,0-8.74.07-17.47Q486.84,382,489.57,379.12Z" transform="translate(-260.75 -349.11)" style="fill:#006936;fill-rule:evenodd"/></g></svg>